<svg width="259" height="262" viewBox="0 0 259 262" fill="none" xmlns="http://www.w3.org/2000/svg">
<g clip-path="url(#clip0_1340_7214)">
<path d="M129.102 215.986C184.323 215.986 229.088 171.221 229.088 116C229.088 60.779 184.323 16.0137 129.102 16.0137C73.8815 16.0137 29.1162 60.779 29.1162 116C29.1162 171.221 73.8815 215.986 129.102 215.986Z" fill="#1F2937"/>
<path d="M64.1213 149.96L16.3047 149.815L16.5014 84.8574L49.5655 84.9576L64.2732 99.7549L64.1213 149.96Z" fill="#838383"/>
<path opacity="0.3" d="M49.5653 84.957L49.5205 99.7096L64.273 99.7543L49.5653 84.957Z" fill="#367CFF"/>
<path d="M64.574 99.7362C64.5725 99.7094 64.5673 99.6835 64.5588 99.6579C64.5554 99.6482 64.553 99.6384 64.5484 99.629C64.5338 99.5967 64.5152 99.566 64.4893 99.5398L49.7816 84.7425C49.7554 84.7163 49.7246 84.6977 49.6927 84.6828C49.6832 84.6785 49.6738 84.6758 49.664 84.6724C49.6384 84.6636 49.6123 84.6581 49.5851 84.6566C49.5787 84.6563 49.573 84.6529 49.5666 84.6529L16.5028 84.5527H16.5019C16.4215 84.5527 16.3441 84.5844 16.2872 84.6414C16.2299 84.6983 16.1977 84.7757 16.1974 84.8567L16 149.814C15.9997 149.982 16.1355 150.119 16.3036 150.12L64.1202 150.265H64.1211C64.2015 150.265 64.2789 150.233 64.3358 150.176C64.3931 150.119 64.4254 150.042 64.4257 149.961L64.5777 99.7551C64.5777 99.7484 64.5743 99.7426 64.574 99.7359V99.7362ZM49.8678 85.6936L56.6569 92.5238L63.5391 99.4478L49.8264 99.4061L49.8678 85.6936ZM16.61 149.511L16.8049 85.1624L49.2596 85.2608L49.216 99.7088C49.2157 99.8769 49.3516 100.014 49.5197 100.014L63.9676 100.058L63.8175 149.655L16.61 149.511Z" fill="#262626"/>
<path d="M161.602 147.361L96.3965 147.163L96.6648 58.582L141.753 58.7188L161.81 78.8972L161.602 147.361Z" fill="#838383"/>
<path opacity="0.3" d="M141.752 58.7188L141.691 78.8363L161.809 78.8972L141.752 58.7188Z" fill="#367CFF"/>
<path d="M162.11 78.8788C162.109 78.852 162.104 78.8261 162.095 78.8005C162.092 78.7908 162.089 78.781 162.085 78.7716C162.07 78.7393 162.051 78.7086 162.026 78.6824L141.969 58.5039C141.943 58.4777 141.912 58.4589 141.88 58.4439C141.87 58.4397 141.861 58.4369 141.851 58.4336C141.826 58.4247 141.8 58.4193 141.772 58.4177C141.766 58.4174 141.76 58.4141 141.754 58.4141L96.6656 58.2773H96.6647C96.5843 58.2773 96.5069 58.309 96.45 58.366C96.3927 58.4229 96.3604 58.5003 96.3601 58.5813L96.0918 147.162C96.0915 147.33 96.2273 147.467 96.3954 147.468L161.601 147.665H161.602C161.683 147.665 161.76 147.634 161.817 147.577C161.874 147.52 161.907 147.442 161.907 147.361L162.114 78.898C162.114 78.8913 162.111 78.8855 162.111 78.8788H162.11ZM142.055 59.4547L161.075 78.5904L141.997 78.5325L142.055 59.4547ZM96.7018 146.859L96.9683 58.8874L141.447 59.0223L141.387 78.8352C141.387 79.0034 141.523 79.1401 141.691 79.1407L161.504 79.2007L161.298 147.055L96.7015 146.859H96.7018Z" fill="#262626"/>
<path d="M241.748 149.96L193.932 149.815L194.128 84.8574L227.192 84.9576L241.9 99.7549L241.748 149.96Z" fill="#838383"/>
<path opacity="0.3" d="M227.192 84.957L227.147 99.7096L241.9 99.7543L227.192 84.957Z" fill="#367CFF"/>
<path d="M242.201 99.7362C242.2 99.7094 242.195 99.6835 242.186 99.6579C242.183 99.6482 242.18 99.6384 242.176 99.629C242.161 99.5967 242.143 99.566 242.117 99.5398L227.409 84.7425C227.383 84.7163 227.352 84.6977 227.32 84.6828C227.311 84.6785 227.301 84.6758 227.291 84.6724C227.266 84.6636 227.24 84.6581 227.212 84.6566C227.206 84.6563 227.2 84.6529 227.194 84.6529L194.13 84.5527H194.129C194.049 84.5527 193.971 84.5844 193.915 84.6414C193.857 84.6983 193.825 84.7757 193.825 84.8567L193.628 149.815C193.628 149.983 193.763 150.12 193.932 150.12L241.748 150.265H241.749C241.829 150.265 241.907 150.233 241.964 150.177C242.021 150.12 242.053 150.042 242.054 149.961L242.206 99.7557C242.206 99.749 242.202 99.7432 242.202 99.7365L242.201 99.7362ZM227.495 85.6936L234.284 92.5238L241.166 99.4478L227.453 99.4061L227.494 85.6936H227.495ZM194.237 149.511L194.432 85.1624L226.887 85.2608L226.843 99.7088C226.843 99.8769 226.979 100.014 227.147 100.014L241.595 100.058L241.445 149.655L194.237 149.511H194.237Z" fill="#262626"/>
<path d="M161.908 79.6239C154.079 70.6371 143.222 65.2359 131.33 64.4151C119.44 63.5944 107.944 67.4515 98.9547 75.28C84.045 88.2653 79.4645 109.854 87.815 127.784C89.4733 131.35 91.6262 134.702 94.2085 137.752L94.7576 138.401L53.8882 181.774C52.7138 183.022 52.4202 184.829 53.146 186.384C53.3689 186.863 53.6762 187.29 54.0648 187.654C55.7338 189.228 58.3706 189.149 59.9445 187.48L100.803 144.115L101.485 144.626C108.349 149.796 116.544 152.844 125.186 153.441C137.076 154.262 148.574 150.402 157.561 142.576C166.548 134.748 171.952 123.891 172.772 112.001C173.593 100.111 169.733 88.6134 161.908 79.6239ZM164.471 111.428C163.805 121.099 159.41 129.934 152.097 136.303C145.432 142.106 137.068 145.229 128.312 145.229C127.464 145.229 126.614 145.2 125.76 145.14C116.085 144.473 107.254 140.078 100.885 132.766C87.7419 117.671 89.3268 94.6989 104.419 81.5532C111.731 75.1869 121.084 72.0475 130.759 72.7133C135.594 73.0477 140.221 74.3116 144.434 76.4102C148.648 78.5034 152.448 81.4308 155.634 85.0869C157.893 87.683 159.766 90.5616 161.201 93.6415C163.764 99.146 164.895 105.295 164.471 111.427L164.471 111.428Z" fill="#4B5563"/>
</g>
<path d="M24.3369 231.391H27.1416L29.8213 238.016L30.8916 241.031L30.79 238.016L30.7354 231.391H32.4229V242H29.6885L26.9463 235.359L25.876 232.297L25.9775 235.359L26.0322 242H24.3369V231.391ZM34.5788 238.008C34.5788 237.32 34.6699 236.714 34.8522 236.188C35.0397 235.661 35.3001 235.221 35.6335 234.867C35.972 234.513 36.3731 234.245 36.8366 234.062C37.3054 233.88 37.821 233.789 38.3835 233.789C38.9616 233.789 39.4824 233.875 39.946 234.047C40.4095 234.214 40.8027 234.469 41.1257 234.812C41.4486 235.156 41.696 235.586 41.8679 236.102C42.0397 236.612 42.1257 237.211 42.1257 237.898C42.1257 238.586 42.0371 239.195 41.86 239.727C41.6882 240.258 41.4382 240.703 41.11 241.062C40.7871 241.422 40.3939 241.695 39.9304 241.883C39.472 242.065 38.9564 242.156 38.3835 242.156C37.7897 242.156 37.2559 242.07 36.7819 241.898C36.3132 241.721 35.9147 241.461 35.5866 241.117C35.2637 240.768 35.0137 240.336 34.8366 239.82C34.6647 239.299 34.5788 238.695 34.5788 238.008ZM38.3835 240.867C38.7272 240.867 39.0241 240.794 39.2741 240.648C39.5293 240.497 39.7376 240.292 39.8991 240.031C40.0606 239.766 40.1804 239.453 40.2585 239.094C40.3366 238.729 40.3757 238.331 40.3757 237.898C40.3757 236.966 40.2168 236.255 39.8991 235.766C39.5814 235.276 39.0762 235.031 38.3835 235.031C38.0345 235.031 37.7298 235.107 37.4694 235.258C37.2142 235.404 37.0007 235.609 36.8288 235.875C36.6621 236.141 36.5371 236.456 36.4538 236.82C36.3705 237.185 36.3288 237.581 36.3288 238.008C36.3288 238.951 36.4955 239.664 36.8288 240.148C37.1673 240.628 37.6856 240.867 38.3835 240.867ZM48.5157 241.641C48.5157 241.521 48.5261 241.391 48.5469 241.25C48.5625 241.13 48.586 240.995 48.6172 240.844C48.6537 240.688 48.7058 240.526 48.7735 240.359C49.0026 240.448 49.2422 240.526 49.4922 240.594C49.7058 240.651 49.9375 240.706 50.1875 240.758C50.4375 240.805 50.6849 240.828 50.9297 240.828C51.1485 240.828 51.3516 240.82 51.5391 240.805C51.7266 240.789 51.8881 240.747 52.0235 240.68C52.1641 240.607 52.2735 240.5 52.3516 240.359C52.4297 240.214 52.4688 240.013 52.4688 239.758C52.4688 239.451 52.3724 239.208 52.1797 239.031C51.9922 238.854 51.6641 238.721 51.1954 238.633C50.711 238.539 50.3021 238.414 49.9688 238.258C49.6407 238.102 49.3724 237.922 49.1641 237.719C48.961 237.51 48.8125 237.279 48.7188 237.023C48.6302 236.768 48.586 236.495 48.586 236.203C48.586 235.766 48.6563 235.393 48.7969 235.086C48.9375 234.779 49.1407 234.531 49.4063 234.344C49.6771 234.151 50.0105 234.013 50.4063 233.93C50.8073 233.841 51.2657 233.797 51.7813 233.797C52.1407 233.797 52.4584 233.823 52.7344 233.875C53.0157 233.922 53.25 233.974 53.4375 234.031C53.6563 234.099 53.8464 234.177 54.0079 234.266C53.9922 234.38 53.9636 234.505 53.9219 234.641C53.8855 234.755 53.836 234.885 53.7735 235.031C53.7162 235.177 53.6381 235.326 53.5391 235.477C53.3985 235.393 53.237 235.32 53.0547 235.258C52.8985 235.201 52.711 235.151 52.4922 235.109C52.2735 235.062 52.0235 235.039 51.7422 235.039C51.5235 235.039 51.3204 235.049 51.1329 235.07C50.9506 235.091 50.7917 235.138 50.6563 235.211C50.5261 235.284 50.4245 235.396 50.3516 235.547C50.2787 235.693 50.2422 235.893 50.2422 236.148C50.2422 236.273 50.2579 236.388 50.2891 236.492C50.3256 236.591 50.3933 236.682 50.4922 236.766C50.5964 236.849 50.7396 236.927 50.9219 237C51.1094 237.068 51.3568 237.135 51.6641 237.203C52.1433 237.307 52.5417 237.427 52.8594 237.562C53.1823 237.698 53.4375 237.862 53.625 238.055C53.8177 238.247 53.9532 238.474 54.0313 238.734C54.1146 238.99 54.1563 239.294 54.1563 239.648C54.1563 240.029 54.0964 240.372 53.9766 240.68C53.8568 240.987 53.6693 241.25 53.4141 241.469C53.1589 241.688 52.8308 241.857 52.4297 241.977C52.0287 242.096 51.5443 242.156 50.9766 242.156C50.612 242.156 50.2787 242.13 49.9766 242.078C49.6797 242.026 49.4219 241.966 49.2032 241.898C48.948 241.826 48.7188 241.74 48.5157 241.641ZM55.8904 238.086C55.8904 237.336 55.9815 236.69 56.1638 236.148C56.3461 235.607 56.6013 235.161 56.9294 234.812C57.2575 234.464 57.6482 234.208 58.1013 234.047C58.5596 233.88 59.0622 233.797 59.6091 233.797C60.1143 233.797 60.5648 233.883 60.9607 234.055C61.3617 234.221 61.7002 234.458 61.9763 234.766C62.2523 235.073 62.4633 235.44 62.6091 235.867C62.7549 236.294 62.8279 236.766 62.8279 237.281C62.8279 237.458 62.82 237.622 62.8044 237.773C62.7888 237.924 62.7706 238.055 62.7497 238.164C62.7289 238.294 62.7055 238.411 62.6794 238.516L57.5544 238.492C57.5596 238.956 57.6091 239.341 57.7029 239.648C57.7966 239.951 57.9346 240.19 58.1169 240.367C58.3044 240.544 58.5388 240.669 58.82 240.742C59.1013 240.81 59.4346 240.844 59.82 240.844C60.1482 240.844 60.4424 240.823 60.7029 240.781C60.9633 240.74 61.1846 240.69 61.3669 240.633C61.5752 240.57 61.7627 240.497 61.9294 240.414C62.0075 240.596 62.0674 240.766 62.1091 240.922C62.156 241.078 62.1898 241.214 62.2107 241.328C62.2315 241.464 62.2471 241.583 62.2575 241.688C62.0857 241.776 61.8773 241.854 61.6325 241.922C61.4242 241.979 61.169 242.031 60.8669 242.078C60.5648 242.13 60.2159 242.156 59.82 242.156C59.195 242.156 58.6377 242.086 58.1482 241.945C57.6638 241.805 57.2523 241.576 56.9138 241.258C56.5805 240.935 56.3252 240.516 56.1482 240C55.9763 239.479 55.8904 238.841 55.8904 238.086ZM61.156 237.352V237.086C61.156 236.758 61.1143 236.469 61.031 236.219C60.9529 235.964 60.8435 235.75 60.7029 235.578C60.5622 235.406 60.3956 235.276 60.2029 235.188C60.0101 235.099 59.8018 235.055 59.5779 235.055C59.2497 235.055 58.9607 235.099 58.7107 235.188C58.4607 235.271 58.2497 235.406 58.0779 235.594C57.9112 235.776 57.7862 236.013 57.7029 236.305C57.6195 236.596 57.5779 236.945 57.5779 237.352H61.156ZM69.171 238.086C69.171 237.336 69.2621 236.69 69.4444 236.148C69.6267 235.607 69.8819 235.161 70.21 234.812C70.5382 234.464 70.9288 234.208 71.3819 234.047C71.8402 233.88 72.3428 233.797 72.8897 233.797C73.3949 233.797 73.8455 233.883 74.2413 234.055C74.6423 234.221 74.9809 234.458 75.2569 234.766C75.533 235.073 75.7439 235.44 75.8897 235.867C76.0356 236.294 76.1085 236.766 76.1085 237.281C76.1085 237.458 76.1007 237.622 76.085 237.773C76.0694 237.924 76.0512 238.055 76.0303 238.164C76.0095 238.294 75.9861 238.411 75.96 238.516L70.835 238.492C70.8402 238.956 70.8897 239.341 70.9835 239.648C71.0772 239.951 71.2152 240.19 71.3975 240.367C71.585 240.544 71.8194 240.669 72.1007 240.742C72.3819 240.81 72.7152 240.844 73.1007 240.844C73.4288 240.844 73.7231 240.823 73.9835 240.781C74.2439 240.74 74.4652 240.69 74.6475 240.633C74.8559 240.57 75.0434 240.497 75.21 240.414C75.2882 240.596 75.3481 240.766 75.3897 240.922C75.4366 241.078 75.4705 241.214 75.4913 241.328C75.5121 241.464 75.5277 241.583 75.5382 241.688C75.3663 241.776 75.158 241.854 74.9132 241.922C74.7048 241.979 74.4496 242.031 74.1475 242.078C73.8455 242.13 73.4965 242.156 73.1007 242.156C72.4757 242.156 71.9184 242.086 71.4288 241.945C70.9444 241.805 70.533 241.576 70.1944 241.258C69.8611 240.935 69.6059 240.516 69.4288 240C69.2569 239.479 69.171 238.841 69.171 238.086ZM74.4366 237.352V237.086C74.4366 236.758 74.3949 236.469 74.3116 236.219C74.2335 235.964 74.1241 235.75 73.9835 235.578C73.8428 235.406 73.6762 235.276 73.4835 235.188C73.2908 235.099 73.0824 235.055 72.8585 235.055C72.5303 235.055 72.2413 235.099 71.9913 235.188C71.7413 235.271 71.5303 235.406 71.3585 235.594C71.1918 235.776 71.0668 236.013 70.9835 236.305C70.9001 236.596 70.8585 236.945 70.8585 237.352H74.4366ZM78.2332 235.445L77.616 234.812V233.93H79.0535L79.7254 234.539L79.9519 234.492C79.9884 234.461 80.0717 234.406 80.2019 234.328C80.3373 234.25 80.5014 234.172 80.6941 234.094C80.892 234.016 81.116 233.948 81.366 233.891C81.616 233.828 81.879 233.797 82.155 233.797C82.5925 233.797 82.9806 233.862 83.3191 233.992C83.6629 234.122 83.9519 234.31 84.1863 234.555C84.4207 234.794 84.5977 235.083 84.7175 235.422C84.8373 235.76 84.8972 236.141 84.8972 236.562V242H83.2175V236.727C83.2175 236.159 83.0977 235.742 82.8582 235.477C82.6238 235.206 82.2488 235.07 81.7332 235.07C81.478 235.07 81.241 235.094 81.0222 235.141C80.8035 235.182 80.6108 235.232 80.4441 235.289C80.2514 235.352 80.0717 235.424 79.905 235.508V242H78.2332V235.445ZM86.9516 237.992C86.9516 237.305 87.0349 236.701 87.2016 236.18C87.3683 235.654 87.6105 235.214 87.9282 234.859C88.2511 234.505 88.6443 234.24 89.1079 234.062C89.5766 233.88 90.1105 233.789 90.7094 233.789C90.9282 233.789 91.1495 233.81 91.3735 233.852C91.5974 233.893 91.8006 233.938 91.9829 233.984C92.1912 234.042 92.3943 234.107 92.5922 234.18C92.5766 234.326 92.5532 234.477 92.5219 234.633C92.4959 234.768 92.4568 234.917 92.4047 235.078C92.3579 235.234 92.298 235.388 92.225 235.539C92.0844 235.482 91.9334 235.427 91.7719 235.375C91.6313 235.333 91.4698 235.294 91.2875 235.258C91.1052 235.221 90.9125 235.203 90.7094 235.203C90.3605 235.203 90.0558 235.268 89.7954 235.398C89.5401 235.523 89.3266 235.708 89.1547 235.953C88.9829 236.193 88.8552 236.484 88.7719 236.828C88.6886 237.172 88.6469 237.557 88.6469 237.984C88.6469 238.922 88.8266 239.633 89.186 240.117C89.5506 240.602 90.0844 240.844 90.7875 240.844C90.9959 240.844 91.1938 240.828 91.3813 240.797C91.5688 240.76 91.7381 240.721 91.8891 240.68C92.061 240.628 92.2224 240.57 92.3735 240.508C92.4256 240.622 92.4724 240.747 92.5141 240.883C92.5506 241.003 92.5818 241.141 92.6079 241.297C92.6391 241.448 92.6521 241.612 92.6469 241.789C92.4542 241.857 92.2537 241.919 92.0454 241.977C91.8683 242.023 91.6677 242.065 91.4438 242.102C91.225 242.138 91.0063 242.156 90.7875 242.156C89.5636 242.156 88.6183 241.807 87.9516 241.109C87.2849 240.411 86.9516 239.372 86.9516 237.992ZM93.9513 238.008C93.9513 237.32 94.0424 236.714 94.2247 236.188C94.4122 235.661 94.6726 235.221 95.006 234.867C95.3445 234.513 95.7456 234.245 96.2091 234.062C96.6778 233.88 97.1935 233.789 97.756 233.789C98.3341 233.789 98.8549 233.875 99.3185 234.047C99.782 234.214 100.175 234.469 100.498 234.812C100.821 235.156 101.068 235.586 101.24 236.102C101.412 236.612 101.498 237.211 101.498 237.898C101.498 238.586 101.41 239.195 101.233 239.727C101.061 240.258 100.811 240.703 100.483 241.062C100.16 241.422 99.7664 241.695 99.3028 241.883C98.8445 242.065 98.3289 242.156 97.756 242.156C97.1622 242.156 96.6284 242.07 96.1544 241.898C95.6857 241.721 95.2872 241.461 94.9591 241.117C94.6362 240.768 94.3862 240.336 94.2091 239.82C94.0372 239.299 93.9513 238.695 93.9513 238.008ZM97.756 240.867C98.0997 240.867 98.3966 240.794 98.6466 240.648C98.9018 240.497 99.1101 240.292 99.2716 240.031C99.4331 239.766 99.5528 239.453 99.631 239.094C99.7091 238.729 99.7482 238.331 99.7482 237.898C99.7482 236.966 99.5893 236.255 99.2716 235.766C98.9539 235.276 98.4487 235.031 97.756 235.031C97.407 235.031 97.1023 235.107 96.8419 235.258C96.5867 235.404 96.3732 235.609 96.2013 235.875C96.0346 236.141 95.9096 236.456 95.8263 236.82C95.743 237.185 95.7013 237.581 95.7013 238.008C95.7013 238.951 95.868 239.664 96.2013 240.148C96.5398 240.628 97.0581 240.867 97.756 240.867ZM103.599 235.445L102.982 234.812V233.93H104.42L105.092 234.539L105.318 234.492C105.355 234.461 105.438 234.406 105.568 234.328C105.704 234.25 105.868 234.172 106.06 234.094C106.258 234.016 106.482 233.948 106.732 233.891C106.982 233.828 107.245 233.797 107.521 233.797C107.959 233.797 108.347 233.862 108.685 233.992C109.029 234.122 109.318 234.31 109.553 234.555C109.787 234.794 109.964 235.083 110.084 235.422C110.204 235.76 110.263 236.141 110.263 236.562V242H108.584V236.727C108.584 236.159 108.464 235.742 108.224 235.477C107.99 235.206 107.615 235.07 107.099 235.07C106.844 235.07 106.607 235.094 106.388 235.141C106.17 235.182 105.977 235.232 105.81 235.289C105.618 235.352 105.438 235.424 105.271 235.508V242H103.599V235.445ZM113.123 235.227H112.099C112.094 235.169 112.089 235.107 112.083 235.039C112.078 234.982 112.073 234.914 112.068 234.836C112.068 234.758 112.068 234.672 112.068 234.578C112.068 234.484 112.07 234.398 112.076 234.32C112.081 234.237 112.089 234.135 112.099 234.016H113.123V232.773L114.021 231.758H114.716V234.016H116.927C116.938 234.068 116.945 234.13 116.951 234.203C116.961 234.276 116.966 234.346 116.966 234.414C116.966 234.534 116.953 234.643 116.927 234.742C116.906 234.841 116.883 234.927 116.857 235C116.826 235.083 116.789 235.159 116.748 235.227H114.716V239.758C114.716 240.138 114.779 240.414 114.904 240.586C115.034 240.758 115.24 240.844 115.521 240.844C115.641 240.844 115.766 240.831 115.896 240.805C116.031 240.773 116.159 240.737 116.279 240.695C116.414 240.648 116.552 240.596 116.693 240.539C116.797 240.674 116.878 240.807 116.935 240.938C116.998 241.068 117.042 241.185 117.068 241.289C117.099 241.409 117.117 241.521 117.123 241.625C116.977 241.724 116.813 241.812 116.63 241.891C116.469 241.958 116.276 242.018 116.052 242.07C115.828 242.128 115.57 242.156 115.279 242.156C114.873 242.156 114.531 242.104 114.255 242C113.985 241.901 113.763 241.753 113.591 241.555C113.425 241.352 113.305 241.102 113.232 240.805C113.159 240.503 113.123 240.156 113.123 239.766V235.227ZM119.896 233.93L120.7 234.773C120.758 234.643 120.831 234.521 120.919 234.406C121.013 234.286 121.12 234.182 121.239 234.094C121.364 234.005 121.502 233.935 121.653 233.883C121.81 233.831 121.979 233.805 122.161 233.805C122.312 233.805 122.458 233.818 122.599 233.844C122.739 233.865 122.893 233.904 123.06 233.961C123.065 233.971 123.07 234.013 123.075 234.086C123.086 234.159 123.091 234.25 123.091 234.359C123.091 234.443 123.086 234.542 123.075 234.656C123.065 234.766 123.047 234.88 123.021 235C123 235.115 122.966 235.229 122.919 235.344C122.877 235.458 122.823 235.557 122.755 235.641L122.607 235.68C122.502 235.628 122.385 235.583 122.255 235.547C122.13 235.51 122 235.492 121.864 235.492C121.656 235.492 121.482 235.508 121.341 235.539C121.2 235.565 121.086 235.594 120.997 235.625C120.893 235.661 120.81 235.703 120.747 235.75V242H119.075V235.445L118.458 234.812V233.93H119.896ZM124.138 239.719C124.138 239.286 124.2 238.919 124.325 238.617C124.45 238.315 124.632 238.068 124.872 237.875C125.117 237.682 125.411 237.539 125.755 237.445C126.104 237.346 126.502 237.284 126.95 237.258L128.692 237.164V236.539C128.692 236.258 128.666 236.026 128.614 235.844C128.567 235.661 128.487 235.516 128.372 235.406C128.257 235.297 128.104 235.221 127.911 235.18C127.723 235.133 127.489 235.109 127.208 235.109C126.927 235.109 126.658 235.141 126.403 235.203C126.153 235.266 125.934 235.333 125.747 235.406C125.523 235.495 125.317 235.594 125.13 235.703C125.015 235.542 124.924 235.388 124.856 235.242C124.789 235.091 124.737 234.956 124.7 234.836C124.653 234.701 124.622 234.57 124.606 234.445C124.856 234.32 125.125 234.211 125.411 234.117C125.661 234.034 125.947 233.958 126.27 233.891C126.598 233.823 126.942 233.789 127.302 233.789C127.895 233.789 128.388 233.841 128.778 233.945C129.169 234.049 129.479 234.208 129.708 234.422C129.942 234.63 130.104 234.896 130.192 235.219C130.286 235.536 130.333 235.914 130.333 236.352V240.711L130.989 241.508V242H129.544L128.942 241.305H128.661C128.635 241.331 128.565 241.391 128.45 241.484C128.341 241.573 128.197 241.669 128.02 241.773C127.848 241.872 127.651 241.961 127.427 242.039C127.208 242.117 126.973 242.156 126.723 242.156C126.333 242.156 125.979 242.099 125.661 241.984C125.343 241.865 125.07 241.698 124.841 241.484C124.617 241.266 124.442 241.008 124.317 240.711C124.197 240.409 124.138 240.078 124.138 239.719ZM125.841 239.578C125.841 239.818 125.875 240.018 125.942 240.18C126.01 240.336 126.104 240.461 126.223 240.555C126.348 240.648 126.497 240.714 126.669 240.75C126.846 240.786 127.041 240.805 127.255 240.805C127.453 240.805 127.638 240.781 127.809 240.734C127.987 240.682 128.14 240.625 128.27 240.562C128.421 240.495 128.562 240.414 128.692 240.32V238.219L127.122 238.32C126.877 238.336 126.671 238.378 126.505 238.445C126.343 238.513 126.213 238.602 126.114 238.711C126.015 238.82 125.945 238.951 125.903 239.102C125.862 239.247 125.841 239.406 125.841 239.578ZM133.77 233.93L134.575 234.773C134.632 234.643 134.705 234.521 134.793 234.406C134.887 234.286 134.994 234.182 135.114 234.094C135.239 234.005 135.377 233.935 135.528 233.883C135.684 233.831 135.853 233.805 136.036 233.805C136.187 233.805 136.333 233.818 136.473 233.844C136.614 233.865 136.767 233.904 136.934 233.961C136.939 233.971 136.945 234.013 136.95 234.086C136.96 234.159 136.965 234.25 136.965 234.359C136.965 234.443 136.96 234.542 136.95 234.656C136.939 234.766 136.921 234.88 136.895 235C136.874 235.115 136.84 235.229 136.793 235.344C136.752 235.458 136.697 235.557 136.629 235.641L136.481 235.68C136.377 235.628 136.26 235.583 136.129 235.547C136.004 235.51 135.874 235.492 135.739 235.492C135.53 235.492 135.356 235.508 135.215 235.539C135.075 235.565 134.96 235.594 134.872 235.625C134.767 235.661 134.684 235.703 134.622 235.75V242H132.95V235.445L132.333 234.812V233.93H133.77ZM138.106 238.008C138.106 237.32 138.197 236.714 138.379 236.188C138.567 235.661 138.827 235.221 139.16 234.867C139.499 234.513 139.9 234.245 140.363 234.062C140.832 233.88 141.348 233.789 141.91 233.789C142.488 233.789 143.009 233.875 143.473 234.047C143.936 234.214 144.33 234.469 144.653 234.812C144.975 235.156 145.223 235.586 145.395 236.102C145.567 236.612 145.653 237.211 145.653 237.898C145.653 238.586 145.564 239.195 145.387 239.727C145.215 240.258 144.965 240.703 144.637 241.062C144.314 241.422 143.921 241.695 143.457 241.883C142.999 242.065 142.483 242.156 141.91 242.156C141.317 242.156 140.783 242.07 140.309 241.898C139.84 241.721 139.442 241.461 139.113 241.117C138.791 240.768 138.541 240.336 138.363 239.82C138.192 239.299 138.106 238.695 138.106 238.008ZM141.91 240.867C142.254 240.867 142.551 240.794 142.801 240.648C143.056 240.497 143.265 240.292 143.426 240.031C143.587 239.766 143.707 239.453 143.785 239.094C143.863 238.729 143.903 238.331 143.903 237.898C143.903 236.966 143.744 236.255 143.426 235.766C143.108 235.276 142.603 235.031 141.91 235.031C141.561 235.031 141.257 235.107 140.996 235.258C140.741 235.404 140.528 235.609 140.356 235.875C140.189 236.141 140.064 236.456 139.981 236.82C139.897 237.185 139.856 237.581 139.856 238.008C139.856 238.951 140.022 239.664 140.356 240.148C140.694 240.628 141.212 240.867 141.91 240.867ZM147.754 235.445L147.137 234.812V233.93H148.574L149.246 234.539L149.473 234.492C149.509 234.461 149.592 234.406 149.723 234.328C149.858 234.25 150.022 234.172 150.215 234.094C150.413 234.016 150.637 233.948 150.887 233.891C151.137 233.828 151.4 233.797 151.676 233.797C152.113 233.797 152.501 233.862 152.84 233.992C153.183 234.122 153.473 234.31 153.707 234.555C153.941 234.794 154.118 235.083 154.238 235.422C154.358 235.76 154.418 236.141 154.418 236.562V242H152.738V236.727C152.738 236.159 152.618 235.742 152.379 235.477C152.144 235.206 151.769 235.07 151.254 235.07C150.999 235.07 150.762 235.094 150.543 235.141C150.324 235.182 150.131 235.232 149.965 235.289C149.772 235.352 149.592 235.424 149.426 235.508V242H147.754V235.445ZM162.722 233.93L163.527 234.773C163.584 234.643 163.657 234.521 163.745 234.406C163.839 234.286 163.946 234.182 164.066 234.094C164.191 234.005 164.329 233.935 164.48 233.883C164.636 233.831 164.805 233.805 164.988 233.805C165.139 233.805 165.284 233.818 165.425 233.844C165.566 233.865 165.719 233.904 165.886 233.961C165.891 233.971 165.896 234.013 165.902 234.086C165.912 234.159 165.917 234.25 165.917 234.359C165.917 234.443 165.912 234.542 165.902 234.656C165.891 234.766 165.873 234.88 165.847 235C165.826 235.115 165.792 235.229 165.745 235.344C165.704 235.458 165.649 235.557 165.581 235.641L165.433 235.68C165.329 235.628 165.211 235.583 165.081 235.547C164.956 235.51 164.826 235.492 164.691 235.492C164.482 235.492 164.308 235.508 164.167 235.539C164.027 235.565 163.912 235.594 163.823 235.625C163.719 235.661 163.636 235.703 163.573 235.75V242H161.902V235.445L161.284 234.812V233.93H162.722ZM167.065 238.086C167.065 237.336 167.156 236.69 167.339 236.148C167.521 235.607 167.776 235.161 168.104 234.812C168.433 234.464 168.823 234.208 169.276 234.047C169.735 233.88 170.237 233.797 170.784 233.797C171.289 233.797 171.74 233.883 172.136 234.055C172.537 234.221 172.875 234.458 173.151 234.766C173.427 235.073 173.638 235.44 173.784 235.867C173.93 236.294 174.003 236.766 174.003 237.281C174.003 237.458 173.995 237.622 173.979 237.773C173.964 237.924 173.946 238.055 173.925 238.164C173.904 238.294 173.88 238.411 173.854 238.516L168.729 238.492C168.735 238.956 168.784 239.341 168.878 239.648C168.972 239.951 169.11 240.19 169.292 240.367C169.479 240.544 169.714 240.669 169.995 240.742C170.276 240.81 170.61 240.844 170.995 240.844C171.323 240.844 171.617 240.823 171.878 240.781C172.138 240.74 172.36 240.69 172.542 240.633C172.75 240.57 172.938 240.497 173.104 240.414C173.183 240.596 173.242 240.766 173.284 240.922C173.331 241.078 173.365 241.214 173.386 241.328C173.406 241.464 173.422 241.583 173.433 241.688C173.261 241.776 173.052 241.854 172.808 241.922C172.599 241.979 172.344 242.031 172.042 242.078C171.74 242.13 171.391 242.156 170.995 242.156C170.37 242.156 169.813 242.086 169.323 241.945C168.839 241.805 168.427 241.576 168.089 241.258C167.755 240.935 167.5 240.516 167.323 240C167.151 239.479 167.065 238.841 167.065 238.086ZM172.331 237.352V237.086C172.331 236.758 172.289 236.469 172.206 236.219C172.128 235.964 172.018 235.75 171.878 235.578C171.737 235.406 171.571 235.276 171.378 235.188C171.185 235.099 170.977 235.055 170.753 235.055C170.425 235.055 170.136 235.099 169.886 235.188C169.636 235.271 169.425 235.406 169.253 235.594C169.086 235.776 168.961 236.013 168.878 236.305C168.795 236.596 168.753 236.945 168.753 237.352H172.331ZM175.612 241.641C175.612 241.521 175.622 241.391 175.643 241.25C175.659 241.13 175.682 240.995 175.713 240.844C175.75 240.688 175.802 240.526 175.87 240.359C176.099 240.448 176.338 240.526 176.588 240.594C176.802 240.651 177.034 240.706 177.284 240.758C177.534 240.805 177.781 240.828 178.026 240.828C178.245 240.828 178.448 240.82 178.635 240.805C178.823 240.789 178.984 240.747 179.12 240.68C179.26 240.607 179.37 240.5 179.448 240.359C179.526 240.214 179.565 240.013 179.565 239.758C179.565 239.451 179.469 239.208 179.276 239.031C179.088 238.854 178.76 238.721 178.292 238.633C177.807 238.539 177.398 238.414 177.065 238.258C176.737 238.102 176.469 237.922 176.26 237.719C176.057 237.51 175.909 237.279 175.815 237.023C175.726 236.768 175.682 236.495 175.682 236.203C175.682 235.766 175.753 235.393 175.893 235.086C176.034 234.779 176.237 234.531 176.503 234.344C176.773 234.151 177.107 234.013 177.503 233.93C177.904 233.841 178.362 233.797 178.878 233.797C179.237 233.797 179.555 233.823 179.831 233.875C180.112 233.922 180.346 233.974 180.534 234.031C180.753 234.099 180.943 234.177 181.104 234.266C181.088 234.38 181.06 234.505 181.018 234.641C180.982 234.755 180.932 234.885 180.87 235.031C180.812 235.177 180.734 235.326 180.635 235.477C180.495 235.393 180.333 235.32 180.151 235.258C179.995 235.201 179.807 235.151 179.588 235.109C179.37 235.062 179.12 235.039 178.838 235.039C178.62 235.039 178.417 235.049 178.229 235.07C178.047 235.091 177.888 235.138 177.753 235.211C177.622 235.284 177.521 235.396 177.448 235.547C177.375 235.693 177.338 235.893 177.338 236.148C177.338 236.273 177.354 236.388 177.385 236.492C177.422 236.591 177.49 236.682 177.588 236.766C177.693 236.849 177.836 236.927 178.018 237C178.206 237.068 178.453 237.135 178.76 237.203C179.24 237.307 179.638 237.427 179.956 237.562C180.279 237.698 180.534 237.862 180.721 238.055C180.914 238.247 181.049 238.474 181.128 238.734C181.211 238.99 181.253 239.294 181.253 239.648C181.253 240.029 181.193 240.372 181.073 240.68C180.953 240.987 180.766 241.25 180.51 241.469C180.255 241.688 179.927 241.857 179.526 241.977C179.125 242.096 178.641 242.156 178.073 242.156C177.708 242.156 177.375 242.13 177.073 242.078C176.776 242.026 176.518 241.966 176.299 241.898C176.044 241.826 175.815 241.74 175.612 241.641ZM183.26 234.016H184.932V239.234C184.932 239.792 185.041 240.206 185.26 240.477C185.479 240.742 185.846 240.875 186.362 240.875C186.612 240.875 186.838 240.854 187.041 240.812C187.244 240.771 187.421 240.721 187.573 240.664C187.744 240.602 187.898 240.529 188.033 240.445V234.016H189.713V240.711L190.408 241.508V242H188.901L188.283 241.383H187.987C187.945 241.414 187.867 241.471 187.752 241.555C187.638 241.638 187.489 241.727 187.307 241.82C187.13 241.909 186.924 241.987 186.69 242.055C186.455 242.122 186.2 242.156 185.924 242.156C185.487 242.156 185.101 242.091 184.768 241.961C184.435 241.831 184.156 241.646 183.932 241.406C183.708 241.161 183.539 240.87 183.424 240.531C183.315 240.188 183.26 239.805 183.26 239.383V234.016ZM192.236 230.758H193.853V240.688L194.314 241.016V242H193.869L193.853 241.984V242C193.338 242 192.939 241.896 192.658 241.688C192.377 241.479 192.236 241.135 192.236 240.656V230.758ZM196.791 235.227H195.767C195.762 235.169 195.757 235.107 195.752 235.039C195.746 234.982 195.741 234.914 195.736 234.836C195.736 234.758 195.736 234.672 195.736 234.578C195.736 234.484 195.739 234.398 195.744 234.32C195.749 234.237 195.757 234.135 195.767 234.016H196.791V232.773L197.689 231.758H198.384V234.016H200.595C200.606 234.068 200.614 234.13 200.619 234.203C200.629 234.276 200.634 234.346 200.634 234.414C200.634 234.534 200.621 234.643 200.595 234.742C200.575 234.841 200.551 234.927 200.525 235C200.494 235.083 200.457 235.159 200.416 235.227H198.384V239.758C198.384 240.138 198.447 240.414 198.572 240.586C198.702 240.758 198.908 240.844 199.189 240.844C199.309 240.844 199.434 240.831 199.564 240.805C199.7 240.773 199.827 240.737 199.947 240.695C200.082 240.648 200.22 240.596 200.361 240.539C200.465 240.674 200.546 240.807 200.603 240.938C200.666 241.068 200.71 241.185 200.736 241.289C200.767 241.409 200.785 241.521 200.791 241.625C200.645 241.724 200.481 241.812 200.298 241.891C200.137 241.958 199.944 242.018 199.72 242.07C199.496 242.128 199.239 242.156 198.947 242.156C198.541 242.156 198.2 242.104 197.923 242C197.653 241.901 197.431 241.753 197.259 241.555C197.093 241.352 196.973 241.102 196.9 240.805C196.827 240.503 196.791 240.156 196.791 239.766V235.227ZM202.001 239.719C202.001 239.286 202.064 238.919 202.189 238.617C202.314 238.315 202.496 238.068 202.736 237.875C202.98 237.682 203.275 237.539 203.618 237.445C203.967 237.346 204.366 237.284 204.814 237.258L206.556 237.164V236.539C206.556 236.258 206.53 236.026 206.478 235.844C206.431 235.661 206.35 235.516 206.236 235.406C206.121 235.297 205.967 235.221 205.775 235.18C205.587 235.133 205.353 235.109 205.072 235.109C204.79 235.109 204.522 235.141 204.267 235.203C204.017 235.266 203.798 235.333 203.611 235.406C203.387 235.495 203.181 235.594 202.993 235.703C202.879 235.542 202.788 235.388 202.72 235.242C202.652 235.091 202.6 234.956 202.564 234.836C202.517 234.701 202.486 234.57 202.47 234.445C202.72 234.32 202.988 234.211 203.275 234.117C203.525 234.034 203.811 233.958 204.134 233.891C204.462 233.823 204.806 233.789 205.165 233.789C205.759 233.789 206.251 233.841 206.642 233.945C207.033 234.049 207.342 234.208 207.572 234.422C207.806 234.63 207.967 234.896 208.056 235.219C208.15 235.536 208.197 235.914 208.197 236.352V240.711L208.853 241.508V242H207.408L206.806 241.305H206.525C206.499 241.331 206.428 241.391 206.314 241.484C206.204 241.573 206.061 241.669 205.884 241.773C205.712 241.872 205.514 241.961 205.29 242.039C205.072 242.117 204.837 242.156 204.587 242.156C204.197 242.156 203.842 242.099 203.525 241.984C203.207 241.865 202.934 241.698 202.704 241.484C202.48 241.266 202.306 241.008 202.181 240.711C202.061 240.409 202.001 240.078 202.001 239.719ZM203.704 239.578C203.704 239.818 203.738 240.018 203.806 240.18C203.874 240.336 203.967 240.461 204.087 240.555C204.212 240.648 204.361 240.714 204.533 240.75C204.71 240.786 204.905 240.805 205.118 240.805C205.316 240.805 205.501 240.781 205.673 240.734C205.85 240.682 206.004 240.625 206.134 240.562C206.285 240.495 206.426 240.414 206.556 240.32V238.219L204.986 238.32C204.741 238.336 204.535 238.378 204.368 238.445C204.207 238.513 204.077 238.602 203.978 238.711C203.879 238.82 203.809 238.951 203.767 239.102C203.725 239.247 203.704 239.406 203.704 239.578ZM210.188 238.148C210.188 237.404 210.293 236.758 210.501 236.211C210.709 235.664 210.991 235.211 211.345 234.852C211.704 234.492 212.118 234.227 212.587 234.055C213.056 233.878 213.553 233.789 214.079 233.789C214.277 233.789 214.454 233.799 214.61 233.82C214.767 233.836 214.899 233.857 215.009 233.883C215.139 233.909 215.254 233.94 215.353 233.977V230.758H217.017V240.711L217.704 241.508V242H216.142L215.603 241.383H215.337C215.311 241.409 215.256 241.464 215.173 241.547C215.095 241.63 214.98 241.716 214.829 241.805C214.683 241.893 214.501 241.974 214.282 242.047C214.069 242.12 213.816 242.156 213.524 242.156C213.139 242.156 212.748 242.078 212.353 241.922C211.957 241.766 211.597 241.523 211.274 241.195C210.957 240.867 210.696 240.453 210.493 239.953C210.29 239.448 210.188 238.846 210.188 238.148ZM211.938 238.148C211.938 238.633 211.988 239.047 212.087 239.391C212.191 239.734 212.337 240.018 212.524 240.242C212.712 240.461 212.941 240.622 213.212 240.727C213.483 240.826 213.787 240.875 214.126 240.875C214.256 240.875 214.394 240.854 214.54 240.812C214.686 240.771 214.819 240.721 214.938 240.664C215.079 240.607 215.217 240.536 215.353 240.453V235.172C215.285 235.13 215.183 235.089 215.048 235.047C214.918 235.005 214.735 234.984 214.501 234.984C213.683 234.984 213.05 235.255 212.603 235.797C212.16 236.333 211.938 237.117 211.938 238.148ZM219.001 238.008C219.001 237.32 219.092 236.714 219.274 236.188C219.462 235.661 219.722 235.221 220.055 234.867C220.394 234.513 220.795 234.245 221.258 234.062C221.727 233.88 222.243 233.789 222.805 233.789C223.383 233.789 223.904 233.875 224.368 234.047C224.831 234.214 225.225 234.469 225.548 234.812C225.87 235.156 226.118 235.586 226.29 236.102C226.462 236.612 226.548 237.211 226.548 237.898C226.548 238.586 226.459 239.195 226.282 239.727C226.11 240.258 225.86 240.703 225.532 241.062C225.209 241.422 224.816 241.695 224.352 241.883C223.894 242.065 223.378 242.156 222.805 242.156C222.212 242.156 221.678 242.07 221.204 241.898C220.735 241.721 220.337 241.461 220.008 241.117C219.686 240.768 219.436 240.336 219.258 239.82C219.087 239.299 219.001 238.695 219.001 238.008ZM222.805 240.867C223.149 240.867 223.446 240.794 223.696 240.648C223.951 240.497 224.16 240.292 224.321 240.031C224.482 239.766 224.602 239.453 224.68 239.094C224.758 238.729 224.798 238.331 224.798 237.898C224.798 236.966 224.639 236.255 224.321 235.766C224.003 235.276 223.498 235.031 222.805 235.031C222.456 235.031 222.152 235.107 221.891 235.258C221.636 235.404 221.423 235.609 221.251 235.875C221.084 236.141 220.959 236.456 220.876 236.82C220.792 237.185 220.751 237.581 220.751 238.008C220.751 238.951 220.917 239.664 221.251 240.148C221.589 240.628 222.107 240.867 222.805 240.867ZM228.133 241.641C228.133 241.521 228.144 241.391 228.164 241.25C228.18 241.13 228.203 240.995 228.235 240.844C228.271 240.688 228.323 240.526 228.391 240.359C228.62 240.448 228.86 240.526 229.11 240.594C229.323 240.651 229.555 240.706 229.805 240.758C230.055 240.805 230.302 240.828 230.547 240.828C230.766 240.828 230.969 240.82 231.157 240.805C231.344 240.789 231.506 240.747 231.641 240.68C231.782 240.607 231.891 240.5 231.969 240.359C232.047 240.214 232.086 240.013 232.086 239.758C232.086 239.451 231.99 239.208 231.797 239.031C231.61 238.854 231.282 238.721 230.813 238.633C230.328 238.539 229.92 238.414 229.586 238.258C229.258 238.102 228.99 237.922 228.782 237.719C228.578 237.51 228.43 237.279 228.336 237.023C228.248 236.768 228.203 236.495 228.203 236.203C228.203 235.766 228.274 235.393 228.414 235.086C228.555 234.779 228.758 234.531 229.024 234.344C229.295 234.151 229.628 234.013 230.024 233.93C230.425 233.841 230.883 233.797 231.399 233.797C231.758 233.797 232.076 233.823 232.352 233.875C232.633 233.922 232.868 233.974 233.055 234.031C233.274 234.099 233.464 234.177 233.625 234.266C233.61 234.38 233.581 234.505 233.539 234.641C233.503 234.755 233.453 234.885 233.391 235.031C233.334 235.177 233.256 235.326 233.157 235.477C233.016 235.393 232.855 235.32 232.672 235.258C232.516 235.201 232.328 235.151 232.11 235.109C231.891 235.062 231.641 235.039 231.36 235.039C231.141 235.039 230.938 235.049 230.75 235.07C230.568 235.091 230.409 235.138 230.274 235.211C230.144 235.284 230.042 235.396 229.969 235.547C229.896 235.693 229.86 235.893 229.86 236.148C229.86 236.273 229.875 236.388 229.907 236.492C229.943 236.591 230.011 236.682 230.11 236.766C230.214 236.849 230.357 236.927 230.539 237C230.727 237.068 230.974 237.135 231.282 237.203C231.761 237.307 232.159 237.427 232.477 237.562C232.8 237.698 233.055 237.862 233.243 238.055C233.435 238.247 233.571 238.474 233.649 238.734C233.732 238.99 233.774 239.294 233.774 239.648C233.774 240.029 233.714 240.372 233.594 240.68C233.474 240.987 233.287 241.25 233.032 241.469C232.776 241.688 232.448 241.857 232.047 241.977C231.646 242.096 231.162 242.156 230.594 242.156C230.23 242.156 229.896 242.13 229.594 242.078C229.297 242.026 229.039 241.966 228.821 241.898C228.565 241.826 228.336 241.74 228.133 241.641Z" fill="#9CA3AF"/>
<defs>
<clipPath id="clip0_1340_7214">
<rect width="226.205" height="200" fill="white" transform="translate(16 16)"/>
</clipPath>
</defs>
</svg>
